<?xml version="1.0" standalone="no"?>
<!DOCTYPE svg PUBLIC "-//W3C//DTD SVG 20010904//EN"
 "http://www.w3.org/TR/2001/REC-SVG-20010904/DTD/svg10.dtd">
<svg version="1.0" xmlns="http://www.w3.org/2000/svg"
 width="1024.000000pt" height="535.000000pt" viewBox="0 0 1024.000000 535.000000"
 preserveAspectRatio="xMidYMid meet">

<g transform="translate(0.000000,535.000000) scale(0.100000,-0.100000)"
fill="#000000" stroke="none">
<path d="M0 2675 l0 -2675 1485 0 c1478 0 1485 0 1485 20 0 13 7 20 20 20 13
0 20 -7 20 -20 0 -20 7 -20 890 -20 l890 0 5 22 c21 92 31 158 24 158 -5 0
-48 -18 -95 -40 -48 -22 -88 -39 -90 -37 -3 2 128 75 183 101 25 12 32 32 8
23 -8 -4 -17 -2 -20 3 -3 4 1 10 7 13 10 3 10 7 1 18 -7 8 -10 24 -7 35 4 15
-6 30 -41 58 l-46 38 -30 -28 c-17 -16 -28 -22 -24 -13 3 8 14 21 25 29 19 14
19 15 -8 44 l-27 29 38 -25 c20 -14 55 -41 77 -62 21 -20 43 -36 48 -36 5 0
15 -7 22 -15 7 -8 16 -15 20 -15 7 0 27 69 52 178 5 24 12 42 14 39 3 -2 0
-27 -6 -55 -6 -27 -10 -56 -9 -64 1 -7 -6 -30 -15 -52 -19 -42 -15 -69 8 -60
20 8 56 -13 56 -34 1 -16 35 -36 133 -76 20 -8 37 -17 37 -20 0 -6 -43 5 -55
14 -18 14 -124 41 -135 35 -5 -3 -8 -18 -6 -33 3 -15 7 -60 11 -99 l7 -73
1523 0 c1213 0 1524 2 1528 12 4 10 6 10 6 1 1 -10 238 -13 1116 -13 l1115 0
0 2675 0 2675 -5120 0 -5120 0 0 -2675z m8660 -280 c13 -16 6 -35 -15 -35 -18
0 -28 17 -21 35 7 19 20 19 36 0z m674 0 c3 -9 -1 -18 -10 -22 -19 -7 -39 11
-30 26 10 16 33 13 40 -4z m576 -195 c0 -13 -7 -20 -20 -20 -19 0 -27 20 -13
33 13 14 33 6 33 -13z m-7180 -70 c0 -21 -24 -28 -35 -10 -8 14 3 30 21 30 8
0 14 -9 14 -20z m6035 -74 c0 -22 -14 -29 -34 -17 -19 12 -6 43 16 39 10 -2
18 -12 18 -22z m-7950 -7 c4 -5 4 -21 1 -35 -8 -31 -52 -34 -61 -4 -12 36 41
70 60 39z m1395 -9 c0 -13 -7 -20 -20 -20 -19 0 -27 20 -13 33 13 14 33 6 33
-13z m6640 -251 c0 -20 -24 -26 -35 -9 -4 6 -4 17 -1 25 7 20 36 7 36 -16z
m468 -16 c-2 -10 -10 -18 -18 -18 -8 0 -16 8 -18 18 -2 12 3 17 18 17 15 0 20
-5 18 -17z m-7338 -44 c0 -25 -33 -22 -38 4 -2 12 3 17 17 17 15 0 21 -6 21
-21z m7754 -22 c8 -12 8 -22 0 -34 -14 -23 -66 -36 -76 -20 -11 18 -10 22 17
51 27 29 42 30 59 3z m-514 -82 c0 -8 -4 -15 -9 -15 -13 0 -22 16 -14 24 11
11 23 6 23 -9z m-4502 -7 c-6 -18 -28 -21 -28 -4 0 9 7 16 16 16 9 0 14 -5 12
-12z m-2280 -25 c5 -17 -26 -29 -40 -15 -6 6 -7 15 -3 22 9 14 37 9 43 -7z
m7002 -3 c0 -11 -4 -20 -9 -20 -11 0 -22 26 -14 34 12 12 23 5 23 -14z m-1273
-126 c8 -21 -13 -42 -28 -27 -13 13 -5 43 11 43 6 0 13 -7 17 -16z m-922 -39
c0 -25 -4 -31 -27 -33 -19 -2 -28 2 -33 18 -8 27 12 52 39 48 16 -2 21 -10 21
-33z m-6925 -4 c0 -27 -19 -36 -37 -18 -18 18 -9 37 18 37 12 0 19 -7 19 -19z
m8878 -59 c2 -14 -2 -22 -12 -22 -19 0 -29 17 -22 36 8 22 30 12 34 -14z
m-6813 -17 c0 -13 -7 -20 -20 -20 -26 -1 -37 16 -23 33 16 18 43 10 43 -13z
m-1915 -26 c0 -5 -10 -9 -21 -9 -18 0 -19 2 -9 15 12 15 30 12 30 -6z m-197
-14 c-3 -8 -9 -15 -14 -15 -10 0 -12 24 -3 33 11 11 24 -3 17 -18z m9295 2 c2
-11 -3 -17 -17 -17 -23 0 -35 15 -26 31 10 15 39 6 43 -14z m-6830 -10 c2 -12
-3 -17 -17 -17 -12 0 -21 6 -21 13 0 31 32 34 38 4z m940 -24 c2 -12 -5 -27
-16 -35 -11 -7 -22 -25 -25 -38 -4 -24 -4 -24 -6 3 0 15 -6 36 -13 46 -17 28
-3 53 29 49 20 -2 29 -9 31 -25z m-1951 1 c8 -21 -13 -42 -28 -27 -13 13 -5
43 11 43 6 0 13 -7 17 -16z m7953 -74 c0 -13 -7 -20 -19 -20 -22 0 -35 15 -26
30 12 19 45 11 45 -10z m-6466 -71 c-9 -15 -34 -10 -41 7 -9 23 19 38 34 17 7
-9 10 -20 7 -24z m4992 -29 l-5 -50 27 6 c26 5 26 5 8 -10 -19 -15 -17 -16 25
-17 l44 -2 -42 -6 c-23 -4 -52 -16 -64 -27 -19 -17 -21 -26 -16 -84 l5 -65
-13 60 c-9 39 -20 64 -34 74 -12 7 -21 22 -21 33 0 10 -7 21 -15 24 -23 9 -18
21 8 20 12 -1 21 4 20 10 -1 7 6 10 16 7 14 -4 23 5 37 36 10 23 19 41 21 41
2 0 1 -23 -1 -50z m544 10 c0 -11 -6 -20 -14 -20 -18 0 -29 16 -21 30 11 18
35 11 35 -10z m-6580 -24 c0 -29 -28 -42 -48 -22 -13 12 -13 18 -2 30 20 25
50 20 50 -8z m5900 -16 c8 -5 11 -12 7 -16 -4 -4 -15 0 -24 9 -18 18 -8 23 17
7z m-427 -24 c7 -18 -1 -26 -25 -26 -18 0 -25 20 -11 33 11 12 31 8 36 -7z
m-6653 -11 c20 -24 3 -55 -30 -55 -20 0 -31 6 -35 20 -8 25 10 50 35 50 10 0
23 -7 30 -15z m8122 -9 c11 -16 10 -23 -8 -40 -19 -19 -36 -20 -52 -4 -15 15
-15 41 0 56 13 13 49 6 60 -12z m-8052 -1 c0 -8 -6 -15 -14 -15 -20 0 -29 17
-14 23 22 9 28 7 28 -8z m1307 -72 c-3 -10 -5 -4 -5 12 0 17 2 24 5 18 2 -7 2
-21 0 -30z m-317 8 c-14 -27 -32 -37 -23 -14 6 15 22 32 31 33 1 0 -2 -9 -8
-19z m6386 8 c8 -14 -21 -43 -35 -35 -19 12 -13 46 8 46 11 0 23 -5 27 -11z
m-8081 -69 c0 -8 -8 -16 -17 -18 -13 -2 -18 3 -18 18 0 15 5 20 18 18 9 -2 17
-10 17 -18z m2012 -17 c-3 -10 -5 -4 -5 12 0 17 2 24 5 18 2 -7 2 -21 0 -30z
m4313 -4 c9 -15 8 -24 -1 -35 -27 -33 -78 0 -58 38 13 24 46 23 59 -3z m-3853
-5 c7 -18 -17 -38 -31 -24 -11 11 -1 40 14 40 6 0 13 -7 17 -16z m-660 0 c11
-3 23 -14 26 -23 4 -18 45 -31 93 -31 13 0 24 -4 24 -10 0 -5 -13 -10 -29 -10
-16 0 -38 -3 -48 -6 -13 -4 -14 -3 -5 4 20 14 -14 25 -38 12 -20 -11 -17 -32
21 -118 23 -51 23 -58 5 -43 -11 10 -15 8 -19 -6 -4 -15 -5 -14 -6 4 0 12 -11
29 -23 37 -28 20 -33 11 -43 -71 -4 -34 -12 -64 -19 -66 -9 -4 -9 11 1 67 7
39 12 78 13 87 0 22 -59 31 -78 13 -27 -27 -23 -13 9 31 18 25 36 45 41 45 5
0 8 13 6 29 -3 29 16 61 36 61 6 0 21 -3 33 -6z m2011 -22 c3 -16 -2 -22 -17
-22 -24 0 -35 15 -27 36 9 23 40 13 44 -14z m-830 1 c-5 -26 -38 -29 -38 -4 0
15 6 21 21 21 14 0 19 -5 17 -17z m-981 -25 c-3 -7 -5 -2 -5 12 0 14 2 19 5
13 2 -7 2 -19 0 -25z m1701 4 c3 -17 -2 -22 -17 -22 -14 0 -21 6 -21 18 0 38
33 41 38 4z m4552 7 c0 -24 -23 -21 -28 4 -2 10 3 17 12 17 10 0 16 -9 16 -21z
m-5066 -8 c3 -5 0 -14 -8 -20 -10 -9 -15 -8 -19 3 -9 22 15 37 27 17z m-1184
-31 c0 -5 -5 -10 -11 -10 -5 0 -7 5 -4 10 3 6 8 10 11 10 2 0 4 -4 4 -10z
m378 -3 c14 -17 -2 -42 -22 -34 -20 8 -21 47 -2 47 7 0 18 -6 24 -13z m-1633
-37 c0 -8 -10 -16 -22 -18 -22 -3 -32 16 -16 32 12 11 38 2 38 -14z m4081 9
c8 -14 -21 -43 -35 -35 -19 12 -13 46 8 46 11 0 23 -5 27 -11z m2444 -4 c0 -8
-7 -15 -15 -15 -16 0 -20 12 -8 23 11 12 23 8 23 -8z m-5270 -5 c0 -5 -2 -10
-4 -10 -3 0 -8 5 -11 10 -3 6 -1 10 4 10 6 0 11 -4 11 -10z m7597 -16 c9 -23
-13 -40 -32 -24 -12 10 -13 16 -4 26 15 18 28 18 36 -2z m-193 -10 c12 -5 13
-10 5 -25 -17 -33 -56 -20 -43 15 7 17 14 19 38 10z m-6731 -10 c11 -11 -5
-34 -24 -34 -18 0 -26 20 -12 33 8 9 28 9 36 1z m4440 -27 c8 -21 -7 -39 -26
-31 -24 9 -22 44 2 44 10 0 21 -6 24 -13z m1841 -14 c8 -19 -10 -34 -31 -26
-7 3 -13 11 -13 17 0 29 34 36 44 9z m-3806 -21 c2 -14 -2 -22 -12 -22 -19 0
-29 17 -22 36 8 22 30 12 34 -14z m-3841 -28 c8 -21 -13 -42 -28 -27 -13 13
-5 43 11 43 6 0 13 -7 17 -16z m6311 -1 c5 -17 -26 -29 -40 -15 -6 6 -7 15 -3
22 9 14 37 9 43 -7z m-3022 -1 c17 -12 22 -36 10 -47 -31 -27 -65 -1 -46 34
11 22 19 25 36 13z m-2569 -17 c3 -9 -3 -25 -13 -36 -17 -18 -19 -19 -30 -4
-7 9 -10 25 -7 35 6 24 41 27 50 5z m4970 -39 c-9 -23 -37 -20 -37 3 0 21 20
33 34 20 5 -4 6 -15 3 -23z m181 17 c-4 -22 -22 -20 -26 1 -2 10 3 16 13 16
10 0 15 -7 13 -17z m1202 -8 c0 -9 -7 -18 -16 -22 -18 -7 -39 11 -30 26 11 17
46 13 46 -4z m-6490 -25 c6 -11 8 -20 6 -20 -3 0 -10 9 -16 20 -6 11 -8 20 -6
20 3 0 10 -9 16 -20z m1515 0 c0 -8 -10 -16 -22 -18 -22 -3 -32 16 -16 32 12
11 38 2 38 -14z m1140 -1 c-4 -5 -10 -9 -15 -9 -5 0 -22 -12 -39 -27 -16 -16
-47 -46 -70 -67 -23 -21 -44 -36 -48 -32 -4 3 2 13 14 21 11 7 48 41 83 74 35
33 67 58 72 55 4 -3 6 -10 3 -15z m-2680 -44 c8 -49 -9 -28 -20 25 -5 24 -4
32 3 25 6 -5 13 -28 17 -50z m-1170 34 c10 -15 -1 -23 -20 -15 -9 3 -13 10
-10 16 8 13 22 13 30 -1z m3879 -4 c-4 -8 -8 -15 -10 -15 -2 0 -4 7 -4 15 0 8
4 15 10 15 5 0 7 -7 4 -15z m53 -11 c8 -17 8 -24 1 -22 -13 5 -31 48 -20 48 4
0 12 -12 19 -26z m3333 6 c0 -13 -7 -20 -20 -20 -13 0 -20 7 -20 20 0 13 7 20
20 20 13 0 20 -7 20 -20z m70 -15 c0 -18 -5 -25 -20 -25 -15 0 -20 7 -20 25 0
18 5 25 20 25 15 0 20 -7 20 -25z m-6393 -36 c3 -11 11 -18 19 -15 16 6 28
-10 19 -25 -5 -7 -13 -5 -24 5 -10 9 -20 13 -24 10 -3 -4 -13 -4 -22 0 -13 4
-14 10 -5 26 14 26 30 26 37 -1z m5839 -28 c-10 -16 -36 -13 -43 5 -8 22 18
37 36 20 7 -8 10 -19 7 -25z m-2806 -25 c0 -12 -5 -7 -19 24 -11 24 -11 24 3
6 9 -11 16 -24 16 -30z m4210 19 c0 -16 -6 -25 -15 -25 -21 0 -31 30 -14 41
23 14 29 11 29 -16z m-5510 0 c0 -9 -7 -18 -16 -22 -18 -7 -39 11 -30 26 11
17 46 13 46 -4z m6328 -8 c4 -20 -25 -34 -40 -19 -15 15 -1 44 19 40 10 -2 19
-11 21 -21z m-1821 -9 c-3 -8 -6 -5 -6 6 -1 11 2 17 5 13 3 -3 4 -12 1 -19z
m-2258 3 c17 -11 7 -41 -13 -41 -19 0 -29 17 -22 35 6 17 15 18 35 6z m-4954
-11 c7 -11 -12 -40 -25 -40 -11 0 -21 30 -14 41 7 12 31 11 39 -1z m8672 -6
c8 -21 -13 -42 -28 -27 -13 13 -5 43 11 43 6 0 13 -7 17 -16z m-7377 -14 c0
-11 -4 -20 -9 -20 -14 0 -23 18 -16 30 10 17 25 11 25 -10z m959 -26 c-16 -19
-29 -17 -29 4 0 26 11 34 27 21 10 -9 10 -15 2 -25z m1787 -28 c3 -14 12 -26
20 -26 7 0 18 -9 24 -19 5 -11 23 -22 40 -26 16 -4 33 -11 36 -17 4 -6 -1 -8
-15 -4 -11 3 -30 9 -41 12 -24 6 -26 -10 -5 -46 20 -34 20 -60 0 -34 -8 10
-15 27 -15 37 0 10 -11 22 -24 26 -27 11 -37 31 -29 59 3 12 -2 35 -11 53 -20
40 -20 44 -1 26 7 -8 17 -26 21 -41z m-639 29 c7 -19 4 -22 -22 -27 -14 -2
-21 3 -23 20 -3 17 2 22 18 22 11 0 23 -7 27 -15z m933 5 c8 -5 11 -10 5 -10
-5 0 -17 5 -25 10 -8 5 -10 10 -5 10 6 0 17 -5 25 -10z m2887 -12 c-3 -8 -6
-5 -6 6 -1 11 2 17 5 13 3 -3 4 -12 1 -19z m-6534 -14 c11 -12 -13 -44 -33
-44 -21 0 -24 8 -14 34 6 16 35 22 47 10z m4917 -14 c0 -24 -26 -38 -42 -22
-8 8 -8 15 2 27 18 21 40 19 40 -5z m1967 4 c10 -26 -14 -41 -35 -21 -15 16
-15 19 -2 27 21 14 30 12 37 -6z m-6977 -24 c9 -16 8 -22 -5 -26 -21 -8 -39
10 -32 30 9 22 24 20 37 -4z m3910 -16 c0 -28 -30 -33 -51 -8 -11 14 -10 18 5
29 24 18 46 8 46 -21z m2410 16 c0 -15 -7 -20 -25 -20 -23 0 -24 2 -15 20 6
11 17 20 25 20 8 0 15 -9 15 -20z m950 5 c20 -25 8 -50 -25 -50 -21 0 -31 5
-33 18 -4 21 14 47 33 47 7 0 18 -7 25 -15z m-633 -17 c-3 -8 -6 -5 -6 6 -1
11 2 17 5 13 3 -3 4 -12 1 -19z m-3212 -39 c10 -15 -1 -23 -20 -15 -9 3 -13
10 -10 16 8 13 22 13 30 -1z m-3580 -44 c0 -25 -4 -30 -24 -30 -32 0 -49 28
-31 50 7 9 23 15 34 13 16 -2 21 -10 21 -33z m925 -5 c0 -13 -7 -20 -20 -20
-23 0 -35 22 -26 45 8 22 46 1 46 -25z m3596 -9 c-10 -16 -36 -13 -43 5 -8 22
18 37 36 20 7 -8 10 -19 7 -25z m1268 33 c23 -9 20 -44 -3 -44 -20 0 -35 25
-25 41 6 11 8 11 28 3z m-2497 -30 c-3 -3 -12 -4 -19 -1 -8 3 -5 6 6 6 11 1
17 -2 13 -5z m3222 -8 c24 -29 -14 -65 -50 -46 -19 10 -26 40 -12 53 11 12 50
8 62 -7z m-3562 -10 c4 -8 17 -15 28 -17 26 -5 33 -47 9 -56 -10 -4 -22 0 -29
10 -7 10 -16 17 -22 17 -5 0 -18 6 -28 14 -16 12 -17 16 -6 30 17 20 37 21 48
2z m-3452 -36 c-8 -13 -45 -13 -45 -1 0 5 7 17 17 26 15 15 17 15 25 1 5 -9 6
-21 3 -26z m4292 -5 c9 -24 -27 -57 -54 -50 -27 6 -27 7 -8 -38 25 -61 16 -55
-20 13 -42 77 -43 88 -8 60 21 -16 29 -18 32 -8 11 37 47 51 58 23z m1720 -1
c3 -8 1 -20 -5 -26 -15 -15 -43 8 -35 28 7 19 32 18 40 -2z m1697 -20 c8 -21
-1 -34 -25 -34 -34 0 -23 45 12 49 4 1 10 -6 13 -15z m676 -14 c0 -11 -6 -20
-14 -20 -18 0 -29 16 -21 30 11 18 35 11 35 -10z m67 4 c7 -20 -17 -37 -34
-23 -15 13 -6 39 13 39 8 0 17 -7 21 -16z m-8921 -15 c3 -6 0 -17 -7 -25 -18
-17 -44 -2 -36 20 7 18 33 21 43 5z m6303 -28 c-3 -6 -10 -7 -18 -2 -7 5 -10
14 -6 21 9 14 29 -2 24 -19z m-4420 5 c25 -30 -24 -71 -54 -46 -16 13 -20 42
-8 53 11 12 50 8 62 -7z m-166 -17 c3 -13 0 -22 -9 -26 -20 -8 -36 10 -28 30
9 24 31 21 37 -4z m2392 11 c-3 -5 -12 -10 -18 -10 -7 0 -6 4 3 10 19 12 23
12 15 0z m-1242 -25 c-3 -9 -8 -14 -10 -11 -3 3 -2 9 2 15 9 16 15 13 8 -4z
m3617 -20 c0 -8 -7 -15 -15 -15 -16 0 -20 12 -8 23 11 12 23 8 23 -8z"/>
<path d="M2115 780 c3 -5 8 -10 11 -10 2 0 4 5 4 10 0 6 -5 10 -11 10 -5 0 -7
-4 -4 -10z"/>
<path d="M2142 734 c1 -9 9 -19 16 -22 9 -3 13 2 10 14 -1 9 -9 19 -16 22 -9
3 -13 -2 -10 -14z"/>
<path d="M4836 265 c-3 -8 -1 -15 4 -15 6 0 10 7 10 15 0 8 -2 15 -4 15 -2 0
-6 -7 -10 -15z"/>
<path d="M4842 138 c-12 -35 -25 -80 -31 -100 l-9 -38 69 0 c80 0 78 -5 51
120 -14 63 -20 75 -38 78 -19 3 -25 -6 -42 -60z"/>
</g>
</svg>
