<svg width="15" height="15" viewBox="0 0 15 15" fill="none" xmlns="http://www.w3.org/2000/svg">
<path d="M0.247197 4.98453H3.35603V15H0.247197V4.98453ZM1.80247 0C2.15904 1.61913e-07 2.5076 0.10589 2.80405 0.304274C3.1005 0.502658 3.33153 0.784622 3.4679 1.1145C3.60428 1.44437 3.63987 1.80733 3.57018 2.15746C3.5005 2.5076 3.32866 2.82917 3.0764 3.0815C2.82415 3.33383 2.50282 3.50558 2.15306 3.57502C1.80331 3.64446 1.44083 3.60848 1.11151 3.47162C0.782178 3.33476 0.500789 3.10317 0.302937 2.80615C0.105086 2.50914 -0.000338771 2.16004 8.17824e-07 1.80303C0.000455816 1.32467 0.190559 0.866073 0.528539 0.527989C0.866519 0.189906 1.32472 -2.16939e-07 1.80247 0ZM5.30613 4.98453H8.28622V6.35957H8.32742C8.74285 5.57236 9.75567 4.74218 11.268 4.74218C14.4163 4.7353 15 6.8099 15 9.49983V15H11.8912V10.1272C11.8912 8.967 11.8706 7.47336 10.2758 7.47336C8.68105 7.47336 8.40982 8.7384 8.40982 10.0516V15H5.30613V4.98453Z" fill="#FFC947"/>
</svg>
