<svg width="111" height="117" viewBox="0 0 240 240" fill="#fff" xmlns="http://www.w3.org/2000/svg">
    <path
        d="M16.3996 103.395L7.78076 1.5083H102.485L93.8571 103.379L55.0754 114.71L16.3996 103.395Z"
        fill="#E44D26" />
    <path d="M55.1331 106.049L86.471 96.8913L93.8442 9.83838H55.1331V106.049Z" fill="#F16529" />
    <path
        d="M55.1329 47.627H39.4441L38.3604 34.8302H55.1329V22.335H25.4033L25.6876 25.6871L28.601 60.1232H55.1329V47.627ZM55.1329 80.08L55.0804 80.0955L41.8769 76.3365L41.0335 66.3717H29.1308L30.7917 85.9917L55.0786 93.0974L55.1329 93.0819V80.08Z"
        fill="#EBEBEB" />
    <path
        d="M55.0916 47.627V60.1232H69.6906L68.3149 76.3293L55.0916 80.0909V93.0919L79.3974 85.9917L79.5758 83.8807L82.3617 50.9828L82.6503 47.627H79.456H55.0916ZM55.0916 22.335V34.8302H83.7297L83.9674 32.0228L84.5084 25.6871L84.7919 22.335H55.0916Z"
        fill="white" />
</svg>